<?xml version="1.0" encoding="utf-8"?>
<svg width="21px" height="21px" viewBox="0 0 21 21" version="1.1" xmlns:xlink="http://www.w3.org/1999/xlink" xmlns="http://www.w3.org/2000/svg">
  <g id="pause-1-copy-10" transform="translate(0.375 0.375)">
    <path d="M10 0C4.46939 0 0 4.46939 0 10C0 15.5306 4.46939 20 10 20C15.5306 20 20 15.5306 20 10C20 4.46939 15.5306 0 10 0ZM10 18.3388C5.40408 18.3388 1.66122 14.5959 1.66122 10C1.66122 5.40408 5.40408 1.66122 10 1.66122C14.5959 1.66122 18.3388 5.40408 18.3388 10C18.3388 14.5959 14.5959 18.3388 10 18.3388Z" id="Shape" fill="#5C81C2" stroke="none" />
    <path d="M13.8831 13.409L11.7601 11.299L13.7642 9.29165C13.8994 9.15642 13.8994 8.95275 13.7642 8.81752C13.29 8.35967 12.6823 8.1055 12.0387 8.1055C11.734 8.1055 11.4293 8.15601 11.1426 8.27495L8.97719 6.10306C8.84196 5.96782 8.63829 5.96782 8.50306 6.10306L6.10143 8.49328C5.96619 8.62851 5.96619 8.83218 6.10143 8.96741L8.2831 11.154C7.9279 12.0517 8.1446 13.0554 8.82403 13.7642C8.95275 13.8978 9.2053 13.8912 9.29817 13.7642L11.2941 11.7633L13.409 13.8815C13.5442 14.0167 13.7479 14.0167 13.8831 13.8815C14.0183 13.7479 14.0183 13.5458 13.8831 13.409ZM9.07821 13.0538C8.72301 12.5112 8.67251 11.8334 8.97719 11.2403C9.0277 11.1051 9.01141 10.9519 8.90876 10.8509L6.81181 8.74908L8.74094 6.81507L10.8216 8.9332C10.9226 9.03422 11.0758 9.06843 11.211 9.00163C11.4652 8.86639 11.7356 8.79796 12.0224 8.79796C12.3939 8.79796 12.7328 8.89898 13.0196 9.10265L9.07821 13.0538Z" id="Shape" fill="#5C81C2" stroke="#5C81C2" stroke-width="0.75" />
  </g>
</svg>