<?xml version="1.0" encoding="utf-8"?>
<svg width="18px" height="18px" viewBox="0 0 18 18" version="1.1" xmlns:xlink="http://www.w3.org/1999/xlink" xmlns="http://www.w3.org/2000/svg">
  <g id="play-button-copy-4">
    <path d="M9 0C4.02245 0 0 4.02245 0 9C0 13.9776 4.02245 18 9 18C13.9776 18 18 13.9776 18 9C18 4.02245 13.9776 0 9 0ZM9 16.5049C4.86367 16.5049 1.4951 13.1363 1.4951 9C1.4951 4.86367 4.86367 1.4951 9 1.4951C13.1363 1.4951 16.5049 4.86367 16.5049 9C16.5049 13.1363 13.1363 16.5049 9 16.5049Z" id="Shape" fill="#5C81C2" stroke="none" />
    <path d="M12.9049 8.42694L7.69959 4.67265C7.28082 4.39347 6.51306 4.45224 6.51306 5.24571L6.51306 12.791C6.51306 13.5808 7.22204 13.7241 7.69959 13.4045L12.9086 9.6502C13.3053 9.25347 13.3384 8.86041 12.9049 8.42694ZM8.00449 11.2996L8.00449 6.70041L11.182 9L8.00449 11.2996Z" id="Shape" fill="#5C81C2" stroke="none" />
  </g>
</svg>