<?xml version="1.0" encoding="utf-8"?>
<svg width="20px" height="18px" viewBox="0 0 20 18" version="1.1" xmlns:xlink="http://www.w3.org/1999/xlink" xmlns="http://www.w3.org/2000/svg">
  <g id="5-copy-2">
    <path d="M1.23778 16.9098C3.97271 14.1804 6.72961 14.9229 9.76106 16.5791C11.2666 17.4015 12.9317 18 14.6255 18C16.577 18 18.2655 17.2036 19.7206 15.7753C20.0529 15.4492 20.0914 14.861 19.8214 14.4753C19.5588 14.1 19.0905 14.0382 18.7668 14.356C18.0518 15.0581 17.2402 15.5993 16.32 15.8998C14.2995 16.5595 12.2138 15.9119 10.3836 14.912C9.79614 14.5912 9.19841 14.2911 8.58516 14.0355C5.51247 12.7543 2.81877 12.9595 0.274458 15.4989C-0.0543234 15.8271 -0.089397 16.4185 0.182624 16.8007C0.447818 17.1733 0.91676 17.2301 1.23778 16.9098ZM1.23778 3.64474C3.97245 0.915676 6.72987 1.65819 9.76106 3.31404C11.2664 4.13634 12.9317 4.73512 14.6254 4.73482C16.5769 4.73468 18.2655 3.93887 19.7206 2.51054C20.053 2.18428 20.0916 1.59617 19.8214 1.21025C19.5589 0.835148 19.0904 0.772828 18.7668 1.0905C18.0516 1.79275 17.2398 2.33394 16.3193 2.63444C14.2989 3.29421 12.2137 2.64688 10.3836 1.64694C9.79694 1.32646 9.19975 1.0267 8.58744 0.7712C5.51394 -0.510731 2.81957 -0.306155 0.274458 2.23432C-0.0555282 2.56368 -0.0902002 3.1521 0.182624 3.53549C0.447818 3.90823 0.91676 3.96507 1.23778 3.64474ZM1.23778 10.2696C3.97245 7.54057 6.72987 8.28293 9.76106 9.93893C11.2664 10.7614 12.9317 11.3605 14.6254 11.3603C16.577 11.36 18.2655 10.5635 19.7206 9.13514C20.0529 8.80903 20.0914 8.22106 19.8214 7.83514C19.5589 7.46004 19.0905 7.39801 18.7668 7.71583C18.0518 8.41793 17.2402 8.95913 16.32 9.25948C14.2995 9.91924 12.2138 9.27147 10.3836 8.27153C9.7964 7.95076 9.19895 7.65085 8.58596 7.39535C5.51287 6.11386 2.8189 6.31933 0.274458 8.85921C-0.0555282 9.18857 -0.0902002 9.77714 0.182624 10.1605C0.447818 10.5333 0.91676 10.59 1.23778 10.2696Z" id="Shape" fill="#3D4044" fill-rule="evenodd" stroke="none" />
  </g>
</svg>