<svg width="20" height="20" viewBox="0 0 20 20" fill="none" xmlns="http://www.w3.org/2000/svg">
<path fill-rule="evenodd" clip-rule="evenodd" d="M4.11765 5H0.588235C0.263529 5 0 4.72 0 4.375V0.625C0 0.28 0.263529 0 0.588235 0H4.11765C4.44235 0 4.70588 0.28 4.70588 0.625V4.375C4.70588 4.72 4.44235 5 4.11765 5ZM11.7647 5H8.23529C7.91059 5 7.64706 4.72 7.64706 4.375V0.625C7.64706 0.28 7.91059 0 8.23529 0H11.7647C12.0894 0 12.3529 0.28 12.3529 0.625V4.375C12.3529 4.72 12.0894 5 11.7647 5ZM15.8824 5H19.4118C19.7365 5 20 4.72 20 4.375V0.625C20 0.28 19.7365 0 19.4118 0H15.8824C15.5576 0 15.2941 0.28 15.2941 0.625V4.375C15.2941 4.72 15.5576 5 15.8824 5ZM4.11765 12.5H0.588235C0.263529 12.5 0 12.22 0 11.875V8.125C0 7.78 0.263529 7.5 0.588235 7.5H4.11765C4.44235 7.5 4.70588 7.78 4.70588 8.125V11.875C4.70588 12.22 4.44235 12.5 4.11765 12.5ZM8.23529 12.5H11.7647C12.0894 12.5 12.3529 12.22 12.3529 11.875V8.125C12.3529 7.78 12.0894 7.5 11.7647 7.5H8.23529C7.91059 7.5 7.64706 7.78 7.64706 8.125V11.875C7.64706 12.22 7.91059 12.5 8.23529 12.5ZM19.4118 12.5H15.8824C15.5576 12.5 15.2941 12.22 15.2941 11.875V8.125C15.2941 7.78 15.5576 7.5 15.8824 7.5H19.4118C19.7365 7.5 20 7.78 20 8.125V11.875C20 12.22 19.7365 12.5 19.4118 12.5ZM0.588235 20H4.11765C4.44235 20 4.70588 19.72 4.70588 19.375V15.625C4.70588 15.28 4.44235 15 4.11765 15H0.588235C0.263529 15 0 15.28 0 15.625V19.375C0 19.72 0.263529 20 0.588235 20ZM11.7647 20H8.23529C7.91059 20 7.64706 19.72 7.64706 19.375V15.625C7.64706 15.28 7.91059 15 8.23529 15H11.7647C12.0894 15 12.3529 15.28 12.3529 15.625V19.375C12.3529 19.72 12.0894 20 11.7647 20ZM15.8824 20H19.4118C19.7365 20 20 19.72 20 19.375V15.625C20 15.28 19.7365 15 19.4118 15H15.8824C15.5576 15 15.2941 15.28 15.2941 15.625V19.375C15.2941 19.72 15.5576 20 15.8824 20Z" fill="white"/>
</svg>
