<?xml version="1.0" encoding="utf-8"?>
<svg width="20px" height="20px" viewBox="0 0 20 20" version="1.1" xmlns:xlink="http://www.w3.org/1999/xlink" xmlns="http://www.w3.org/2000/svg">
  <defs>
    <radialGradient gradientUnits="objectBoundingBox" cx="50%" cy="0%" fx="50%" fy="0%" r="100%" gradientTransform="translate(0.5,0),rotate(90.00008),translate(-0.5,-0)" id="gradient_1">
      <stop offset="51.758224%" stop-color="#5C81C2" />
      <stop offset="51.85162%" stop-color="#FFFFFF" stop-opacity="0" />
      <stop offset="72.60871%" stop-color="#FFFFFF" stop-opacity="0" />
      <stop offset="73.45331%" stop-color="#5C81C2" />
    </radialGradient>
  </defs>
  <g id="checked-copy-10">
    <path d="M10 20C4.46939 20 0 15.5306 0 10C0 4.46939 4.46939 0 10 0C15.5306 0 20 4.46939 20 10C20 15.5306 15.5306 20 10 20ZM10 1.66122C5.40408 1.66122 1.66122 5.40408 1.66122 10C1.66122 14.5959 5.40408 18.3388 10 18.3388C14.5959 18.3388 18.3388 14.5959 18.3388 10C18.3388 5.40408 14.5959 1.66122 10 1.66122Z" id="Shape" fill="url(#gradient_1)" stroke="none" />
    <path d="M8.04082 13.4041L5.95918 10.298C5.70204 9.91429 5.78776 9.40408 6.17143 9.15102C6.5551 8.89796 7.06531 8.97959 7.31837 9.36327L8.84898 11.6204L12.7551 7.71429C13.0857 7.38367 13.6286 7.37143 13.9592 7.70612C14.298 8.0449 14.2939 8.5551 13.9551 8.89388L9.31837 13.4898C9.18367 13.6571 8.53061 14.0122 8.04082 13.4041Z" id="Shape" fill="#5C81C2" stroke="none" />
  </g>
</svg>