<svg width="24" height="24" viewBox="0 0 24 24" fill="none" xmlns="http://www.w3.org/2000/svg">
<path fill-rule="evenodd" clip-rule="evenodd" d="M0 12C0 5.373 5.373 0 12 0C18.627 0 24 5.373 24 12C24 18.627 18.627 24 12 24C5.373 24 0 18.627 0 12ZM22 12C22 6.486 17.514 2 12 2C6.486 2 2 6.486 2 12C2 17.514 6.486 22 12 22C17.514 22 22 17.514 22 12ZM13.25 17C13.25 17.69 12.691 18.25 12 18.25C11.311 18.25 10.75 17.69 10.75 17C10.75 16.31 11.311 15.75 12 15.75C12.691 15.75 13.25 16.31 13.25 17ZM12.092 6.047C13.128 6.047 14.035 6.386 14.643 7.002C15.213 7.58 15.508 8.375 15.497 9.299C15.48 10.683 14.638 11.591 13.961 12.321C13.056 13.296 13.013 13.835 13.026 14.499H11.021C11.015 13.024 11.041 12.374 12.453 11.031C13.025 10.487 13.477 10.057 13.415 9.21C13.358 8.405 12.685 7.984 12.051 7.984C11.342 7.984 10.513 8.511 10.513 9.997H8.502C8.502 7.597 9.912 6.047 12.092 6.047Z" fill="white"/>
</svg>
