<svg width="14" height="14" viewBox="0 0 14 14" fill="none" xmlns="http://www.w3.org/2000/svg">
<path fill-rule="evenodd" clip-rule="evenodd" d="M13.6 6.4H8.2C7.9792 6.4 7.8 6.2208 7.8 6V0.4C7.8 0.1792 7.6208 0 7.4 0H6.6C6.3792 0 6.2 0.1792 6.2 0.4V6C6.2 6.2208 6.0208 6.4 5.8 6.4H0.4C0.1792 6.4 0 6.5792 0 6.8V7.6C0 7.8208 0.1792 8 0.4 8H5.8C6.0208 8 6.2 8.1792 6.2 8.4V13.6C6.2 13.8208 6.3792 14 6.6 14H7.4C7.6208 14 7.8 13.8208 7.8 13.6V8.4C7.8 8.1792 7.9792 8 8.2 8H13.6C13.8208 8 14 7.8208 14 7.6V6.8C14 6.5792 13.8208 6.4 13.6 6.4Z" fill="#FBFAF9"/>
</svg>
