<?xml version="1.0" encoding="utf-8"?>
<svg width="34px" height="14px" viewBox="0 0 34 14" version="1.1" xmlns:xlink="http://www.w3.org/1999/xlink" xmlns="http://www.w3.org/2000/svg">
  <g id="noun_chevron_216519-copy-3">
    <g id="Group">
      <path d="M20.6694 5.98792L17.0593 2.22045e-16L12.5358 2.22045e-16L12.5263 0.00559967L16.7022 6.9324L12.5448 13.8284L17.0812 13.8284L20.6694 7.87664L21.2386 6.9324L20.6694 5.98792Z" id="Shape" fill="#E9A668" stroke="none" />
      <path d="M26.9326 5.98792L23.3225 0L18.799 0L22.9653 6.9324L18.808 13.8284L23.3444 13.8284L26.9326 7.87664L27.5017 6.9324L26.9326 5.98792Z" id="Shape" fill="#E2954D" stroke="none" />
      <path d="M33.1957 5.98792L29.5856 0L25.0621 0L25.0526 0.00559967L29.2285 6.9324L25.0711 13.8284L29.6075 13.8284L33.1957 7.87664L33.7649 6.9324L33.1957 5.98792Z" id="Shape" fill="#9EA7B7" stroke="none" />
      <path d="M14.9754 6.9324L14.4065 5.98792L10.7964 2.22045e-16L6.27288 2.22045e-16L6.26316 0.00559967L10.4392 6.9324L6.28164 13.8284L10.8183 13.8284L14.4065 7.87664L14.9754 6.9324Z" id="Shape" fill="#4BB276" stroke="none" />
      <path d="M8.7125 6.9324L8.14332 5.98792L4.53325 2.22045e-16L0.0097254 2.22045e-16L-2.22045e-15 0.00559967L4.17584 6.9324L0.0184783 13.8284L4.55513 13.8284L8.14332 7.87664L8.7125 6.9324Z" id="Shape" fill="#5FCE8D" stroke="none" />
    </g>
  </g>
</svg>