<?xml version="1.0" encoding="utf-8"?>
<svg width="20px" height="20px" viewBox="0 0 20 20" version="1.1" xmlns:xlink="http://www.w3.org/1999/xlink" xmlns="http://www.w3.org/2000/svg">
  <g id="play-button-copy-2">
    <path d="M10 0C4.46939 0 0 4.46939 0 10C0 15.5306 4.46939 20 10 20C15.5306 20 20 15.5306 20 10C20 4.46939 15.5306 0 10 0ZM10 18.3388C5.40408 18.3388 1.66122 14.5959 1.66122 10C1.66122 5.40408 5.40408 1.66122 10 1.66122C14.5959 1.66122 18.3388 5.40408 18.3388 10C18.3388 14.5959 14.5959 18.3388 10 18.3388Z" id="Shape" fill="#E96880" stroke="none" />
    <path d="M14.3388 9.36327L8.5551 5.19184C8.0898 4.88163 7.23673 4.94694 7.23673 5.82857L7.23673 14.2122C7.23673 15.0898 8.02449 15.249 8.5551 14.8939L14.3429 10.7224C14.7837 10.2816 14.8204 9.8449 14.3388 9.36327ZM8.89388 12.5551L8.89388 7.4449L12.4245 10L8.89388 12.5551Z" id="Shape" fill="#E96880" stroke="none" />
  </g>
</svg>