<svg width="14" height="15" viewBox="0 0 14 15" fill="none" xmlns="http://www.w3.org/2000/svg">
<path opacity="0.495745" fill-rule="evenodd" clip-rule="evenodd" d="M8.33 12.6923C8.63849 12.6923 8.89212 12.4274 8.89944 12.1136L9.065 4.99648C9.07233 4.67786 8.82342 4.40967 8.50874 4.40225C8.18919 4.39747 7.93312 4.64489 7.92579 4.96335L7.76023 12.0874C7.75274 12.4058 8.00165 12.6923 8.31633 12.6923H8.33ZM5.64509 12.6923H5.65877C5.97344 12.6923 6.22235 12.3859 6.21502 12.0673L6.04947 4.94077C6.04198 4.62214 5.78395 4.36187 5.46635 4.36896C5.15184 4.37637 4.90277 4.63632 4.91026 4.95495L5.07581 12.0966C5.08314 12.4104 5.3366 12.6923 5.64509 12.6923ZM5.37209 1.97802H8.62791V1.15385H5.37209V1.97802ZM14 2.63736C14 3.00148 13.7084 3.2967 13.3488 3.2967H0.651163C0.291558 3.2967 0 3.00148 0 2.63736C0 2.27324 0.291558 1.97802 0.651163 1.97802H4.23256V0.494505C4.23256 0.175879 4.4424 0 4.75707 0H9.24277C9.55744 0 9.76744 0.175879 9.76744 0.494505V1.97802H13.3488C13.7084 1.97802 14 2.27324 14 2.63736ZM12.2739 4.84418L11.7769 14.3754C11.7587 14.7255 11.473 15 11.1267 15H2.87326C2.527 15 2.2413 14.7255 2.22307 14.3754L1.72623 4.84418C1.70719 4.48055 1.98295 4.17017 2.34207 4.15104C2.70298 4.13341 3.00788 4.41115 3.02677 4.77462L3.49105 13.6813H10.509L10.9732 4.77462C10.9923 4.41099 11.3009 4.13456 11.6579 4.15104C12.017 4.17017 12.2928 4.48055 12.2739 4.84418Z" fill="#3D4044"/>
</svg>
