<svg width="22" height="22" viewBox="0 0 22 22" fill="none" xmlns="http://www.w3.org/2000/svg">
<path fill-rule="evenodd" clip-rule="evenodd" d="M21.3529 14.7206H20.6276C20.0433 14.7206 19.5256 14.3317 19.3781 13.7662C19.0759 12.606 18.7647 10.9042 18.7647 8.81618C18.7647 5.83194 17.6899 2.35853 13.0143 1.50247C12.7018 1.44488 12.4675 1.18282 12.4675 0.865118V0.647059C12.4675 0.289882 12.1783 0 11.8211 0H10.5264C10.1692 0 9.87994 0.289882 9.87994 0.647059V0.869647C9.87994 1.18218 9.65024 1.441 9.34224 1.49665C4.63876 2.34235 3.55882 5.82482 3.55882 8.81618C3.55882 10.89 3.245 12.5982 2.94153 13.7655C2.794 14.3311 2.27635 14.7206 1.69206 14.7206H0.647059C0.289882 14.7206 0 15.0105 0 15.3676V16.6618C0 17.0189 0.289882 17.3088 0.647059 17.3088H5.64882C5.95553 17.3088 6.22471 17.5236 6.27971 17.8252C6.71518 20.2018 8.66541 22 11 22C13.3346 22 15.2848 20.2018 15.7203 17.8252C15.7753 17.5236 16.0445 17.3088 16.3512 17.3088H21.3529C21.7101 17.3088 22 17.0189 22 16.6618V15.3676C22 15.0105 21.7101 14.7206 21.3529 14.7206ZM6.08362 8.66732C6.08362 5.30638 7.56422 3.79224 10.9999 3.66667C14.4356 3.79224 15.9162 5.30638 15.9162 8.66732C15.9162 10.7627 16.1833 12.5312 16.4827 13.858C16.5766 14.2722 16.2771 14.6667 15.8661 14.6667H6.13374C5.72267 14.6667 5.42389 14.2722 5.51714 13.858C5.81656 12.5312 6.08362 10.7627 6.08362 8.66732ZM11.4583 19.25C10.32 19.25 9.37259 18.4591 9.16667 17.4167H13.75C13.5441 18.4591 12.5967 19.25 11.4583 19.25Z" fill="#B8B8B8"/>
</svg>
