<?xml version="1.0" encoding="utf-8"?>
<svg width="25px" height="24px" viewBox="0 0 25 24" version="1.1" xmlns:xlink="http://www.w3.org/1999/xlink" xmlns="http://www.w3.org/2000/svg">
  <g id="logo">
    <path d="M22.1193 11.0508C21.9973 10.3695 21.8753 9.68809 21.7533 9.00948C21.7339 9.15017 21.7173 9.29361 21.6978 9.4343C22.2663 8.68949 22.832 7.94192 23.4004 7.1971C23.4808 7.09228 23.5613 6.98745 23.6417 6.87987C23.7997 6.67297 23.6971 6.38884 23.5557 6.21229C22.7183 5.17783 21.8836 4.14337 21.0462 3.10891C20.9297 2.96546 20.8133 2.81926 20.6968 2.67581C20.5859 2.53788 20.3197 2.46892 20.1561 2.53512C19.2466 2.8965 18.3343 3.26063 17.4247 3.622C17.2972 3.67441 17.1669 3.72407 17.0393 3.77648C17.1807 3.79579 17.3249 3.81234 17.4663 3.83165C16.9533 3.56407 16.4403 3.29649 15.9274 3.02891C16.0133 3.13925 16.0965 3.24959 16.1825 3.35993C15.9246 2.4965 15.6695 1.63583 15.4116 0.772399C15.3755 0.651022 15.3395 0.526886 15.3034 0.405509C15.2341 0.171031 15.0151 0 14.7683 0C13.44 0 12.1118 0 10.7835 0C10.5978 0 10.4092 0 10.2234 0C9.97662 0 9.75756 0.171031 9.68824 0.405509C9.43036 1.26894 9.17524 2.12961 8.91736 2.99305C8.88131 3.11442 8.84526 3.23856 8.80922 3.35993C8.89518 3.24959 8.97836 3.13925 9.06433 3.02891C8.55133 3.29649 8.03834 3.56407 7.52534 3.83165C7.66676 3.81234 7.81096 3.79579 7.95238 3.77648C7.04285 3.41511 6.13055 3.05098 5.22103 2.6896C5.09347 2.63719 4.96315 2.58754 4.83559 2.53512C4.67199 2.46892 4.40579 2.54064 4.29487 2.67581C3.45744 3.71027 2.62278 4.74474 1.78536 5.7792C1.66889 5.92264 1.55243 6.06885 1.43597 6.21229C1.29455 6.38608 1.19195 6.67573 1.35001 6.87987C1.91846 7.62468 2.48414 8.37225 3.05259 9.11707C3.13301 9.22189 3.21342 9.32672 3.29384 9.4343C3.27443 9.29361 3.25779 9.15017 3.23838 9.00948C3.11637 9.69085 2.99436 10.3722 2.87235 11.0508C2.95831 10.9405 3.0415 10.8301 3.12746 10.7198C2.2928 11.1363 1.45538 11.5501 0.620722 11.9667C0.504258 12.0246 0.385022 12.0825 0.268558 12.1432C0.041177 12.2563 -0.0336924 12.5377 0.0134476 12.7666C0.271331 13.9942 0.529215 15.219 0.784325 16.4466C0.820373 16.6176 0.856422 16.7886 0.89247 16.9624C0.945156 17.2135 1.19195 17.3459 1.42765 17.3679C2.38986 17.4535 3.3493 17.539 4.31151 17.6217C4.45015 17.6328 4.5888 17.6466 4.72745 17.6576C4.56662 17.5666 4.40856 17.4755 4.24773 17.3845C4.60266 17.87 4.9576 18.3583 5.30976 18.8438C5.28481 18.75 5.25985 18.6589 5.2349 18.5652C5.12675 19.4479 5.02138 20.3334 4.91323 21.2161C4.89937 21.3403 4.88273 21.4672 4.86887 21.5913C4.84668 21.7651 4.98533 21.9941 5.14339 22.0685C6.28861 22.612 7.43384 23.1554 8.57906 23.6989C8.74267 23.7761 8.9035 23.8533 9.0671 23.9306C9.28616 24.0354 9.56068 24.0326 9.73815 23.8451C10.3482 23.2078 10.9555 22.5678 11.5655 21.9306C11.6515 21.8396 11.7402 21.7485 11.8262 21.6575C11.6958 21.7127 11.5655 21.7651 11.4352 21.8203C12.1451 21.8203 12.8522 21.8203 13.562 21.8203C13.4317 21.7651 13.3014 21.7127 13.1711 21.6575C13.7811 22.2947 14.3911 22.9347 14.9984 23.572C15.0844 23.663 15.1731 23.754 15.2591 23.8451C15.4393 24.0326 15.7111 24.0354 15.9301 23.9306C17.0754 23.3871 18.2206 22.8437 19.3658 22.3003C19.5294 22.223 19.6902 22.1458 19.8538 22.0685C20.0119 21.9941 20.1505 21.7679 20.1284 21.5913C20.0202 20.7086 19.9148 19.8231 19.8067 18.9403C19.7928 18.8162 19.7762 18.6893 19.7623 18.5652C19.7374 18.6589 19.7124 18.75 19.6875 18.8438C20.0424 18.3583 20.3973 17.87 20.7523 17.3845C20.5914 17.4755 20.4334 17.5666 20.2726 17.6576C21.2348 17.5721 22.1942 17.4866 23.1564 17.4038C23.2951 17.3928 23.4337 17.379 23.5724 17.3679C23.8053 17.3486 24.0548 17.2135 24.1075 16.9624C24.3654 15.7349 24.6233 14.5101 24.8784 13.2825C24.9145 13.1115 24.9505 12.9404 24.9866 12.7666C25.0337 12.5377 24.9588 12.2563 24.7314 12.1432C23.8968 11.7267 23.0594 11.3129 22.2247 10.8963C22.1082 10.8384 21.989 10.7805 21.8725 10.7198C21.6147 10.5901 21.2597 10.6426 21.1128 10.9184C20.9797 11.1694 21.0351 11.5363 21.3124 11.6743C22.1471 12.0908 22.9845 12.5046 23.8191 12.9211C23.9356 12.9791 24.0548 13.037 24.1713 13.0977C24.0853 12.8908 24.0022 12.6811 23.9162 12.4742C23.6583 13.7018 23.4004 14.9266 23.1453 16.1542C23.1093 16.3252 23.0732 16.4962 23.0372 16.67C23.2146 16.5349 23.3949 16.3997 23.5724 16.2645C22.4743 16.3611 21.3734 16.4438 20.2781 16.5569C20.0563 16.579 19.9259 16.6562 19.7928 16.8328C19.7734 16.8576 19.754 16.8852 19.7346 16.9128C19.6459 17.0342 19.5571 17.1555 19.4684 17.2769C19.2549 17.5693 19.0414 17.8617 18.8306 18.1541C18.7363 18.2838 18.6476 18.3914 18.6559 18.5707C18.6587 18.6231 18.6698 18.6755 18.6753 18.7279C18.7114 19.0369 18.7502 19.3431 18.7863 19.652C18.8639 20.3003 18.9443 20.9486 19.022 21.5968C19.1135 21.4368 19.205 21.2796 19.2965 21.1196C18.1513 21.663 17.006 22.2065 15.8608 22.7499C15.6972 22.8271 15.5364 22.9044 15.3728 22.9816C15.5974 23.0092 15.822 23.0396 16.0438 23.0671C15.6584 22.6616 15.2702 22.2589 14.8847 21.8534C14.6435 21.6023 14.405 21.3513 14.1638 21.1003C13.9752 20.9044 13.8366 20.7224 13.5232 20.7168C12.8771 20.703 12.231 20.7168 11.5849 20.7168C11.3853 20.7168 11.205 20.7224 11.0414 20.8796C11.0054 20.9127 10.9749 20.9513 10.9388 20.9872C10.7281 21.2079 10.5173 21.4286 10.3038 21.652C9.85184 22.1237 9.39985 22.5982 8.95064 23.0699C9.17524 23.0423 9.39985 23.012 9.62169 22.9844C8.47646 22.4409 7.33124 21.8975 6.18601 21.3541C6.02241 21.2768 5.86158 21.1996 5.69798 21.1224C5.78948 21.2823 5.88099 21.4396 5.9725 21.5996C6.03905 21.0506 6.1056 20.4989 6.17215 19.95C6.21374 19.5996 6.25811 19.252 6.2997 18.9017C6.32743 18.6783 6.38289 18.4741 6.24425 18.2672C5.91704 17.779 5.55378 17.31 5.20439 16.8383C5.07129 16.6617 4.94096 16.5845 4.71913 16.5624C4.69694 16.5597 4.67753 16.5597 4.65535 16.5569C4.5583 16.5486 4.46124 16.5404 4.36419 16.5321C4.01757 16.5017 3.66818 16.4714 3.32157 16.4411C2.68934 16.3859 2.0571 16.328 1.42487 16.2728C1.60234 16.408 1.78258 16.5431 1.96005 16.6783C1.70217 15.4507 1.44429 14.2259 1.18917 12.9984C1.15313 12.8273 1.11708 12.6563 1.08103 12.4825C0.995069 12.6894 0.91188 12.8991 0.825919 13.106C1.33891 12.8494 1.85468 12.5956 2.36767 12.3391C2.70043 12.1736 3.03318 12.008 3.36593 11.8425C3.60718 11.7239 3.87615 11.6329 3.94548 11.335C4.08967 10.7032 4.17563 10.055 4.28932 9.41775C4.3226 9.23568 4.35865 9.05086 4.2505 8.88259C4.21445 8.82742 4.17009 8.775 4.12849 8.72259C3.92884 8.46053 3.72919 8.19846 3.52954 7.93364C3.12191 7.39848 2.71706 6.86607 2.30944 6.33091C2.28171 6.55436 2.25121 6.7778 2.22348 6.99849C3.06091 5.96402 3.89556 4.92956 4.73299 3.8951C4.84946 3.75165 4.96592 3.60545 5.08238 3.462C4.90214 3.5089 4.7219 3.55579 4.54166 3.60269C5.03524 3.79855 5.52883 3.99441 6.02241 4.19302C6.37457 4.33371 6.72951 4.4744 7.08167 4.61508C7.27023 4.68956 7.45602 4.77784 7.64735 4.84129C7.93851 4.93784 8.30454 4.67577 8.55688 4.54336C8.87299 4.37785 9.19188 4.21233 9.508 4.04682C9.67992 3.95579 9.81025 3.85924 9.87957 3.65234C9.89898 3.59441 9.91285 3.53648 9.93226 3.47855C10.0238 3.17511 10.1125 2.87167 10.204 2.57098C10.3898 1.94755 10.5756 1.32411 10.7614 0.703435C10.5839 0.838604 10.4037 0.973774 10.2262 1.10894C11.5544 1.10894 12.8827 1.10894 14.2109 1.10894C14.3967 1.10894 14.5853 1.10894 14.771 1.10894C14.5936 0.973774 14.4133 0.838604 14.2359 0.703435C14.3939 1.23032 14.5492 1.75721 14.7073 2.28685C14.8099 2.62891 14.9097 2.96822 15.0123 3.31028C15.0872 3.56131 15.1343 3.85096 15.3839 3.99441C15.6417 4.14337 15.9135 4.27026 16.1769 4.40819C16.4209 4.53508 16.6622 4.6675 16.909 4.78887C17.2168 4.94059 17.4275 4.80818 17.7076 4.69784C18.0348 4.56819 18.3648 4.43578 18.692 4.30612C19.2798 4.07165 19.8677 3.83717 20.4556 3.60545C20.2753 3.55855 20.0951 3.51166 19.9148 3.46476C20.7523 4.49922 21.5869 5.53369 22.4244 6.56815C22.5408 6.71159 22.6573 6.8578 22.7737 7.00124C22.746 6.7778 22.7155 6.55436 22.6878 6.33367C22.2247 6.94331 21.7589 7.55296 21.2958 8.1626C21.1155 8.39708 20.9048 8.6288 20.7495 8.87983C20.6303 9.07293 20.6829 9.28258 20.7218 9.48947C20.7606 9.70464 20.7994 9.91705 20.8382 10.1322C20.9103 10.5405 20.9852 10.9488 21.0573 11.3543C21.1072 11.6384 21.4732 11.826 21.7394 11.7405C22.0389 11.6301 22.172 11.357 22.1193 11.0508Z" id="Shape" fill="#FFFFFF" stroke="none" />
    <path d="M12.4971 14.9464C12.3991 14.9464 12.3011 14.9438 12.2005 14.9359C12.1528 14.9333 12.1025 14.928 12.0548 14.9227C11.9542 14.9148 12.0787 14.9306 12.0866 14.928C12.0628 14.9333 12.0204 14.9175 11.9966 14.9148C11.8033 14.8832 11.6099 14.8385 11.4246 14.7779C11.3345 14.7489 11.2471 14.7173 11.1597 14.6831C11.0671 14.6462 11.1862 14.6962 11.1889 14.6962C11.1836 14.6989 11.1359 14.6725 11.1253 14.6673C11.0776 14.6462 11.03 14.6225 10.985 14.5988C10.8155 14.5119 10.6513 14.4144 10.495 14.3038C10.4686 14.2854 10.3971 14.2511 10.3838 14.2221C10.405 14.2643 10.458 14.2827 10.4103 14.2406C10.3918 14.2248 10.3732 14.2116 10.3573 14.1958C10.2832 14.1326 10.209 14.0694 10.1375 14.0009C10.0713 13.9377 10.0078 13.8718 9.94421 13.8034C9.91243 13.7691 9.8833 13.7349 9.85417 13.7006C9.83828 13.6822 9.82504 13.6664 9.80915 13.648C9.75089 13.5768 9.78532 13.6453 9.8171 13.6611C9.76148 13.6374 9.68998 13.4873 9.6582 13.4373C9.60524 13.3556 9.55227 13.2713 9.50461 13.1844C9.45959 13.1028 9.41722 13.0211 9.37749 12.9368C9.3669 12.9158 9.35895 12.8947 9.34836 12.8736C9.31658 12.8104 9.38544 12.9684 9.3616 12.9026C9.34307 12.8525 9.32188 12.8051 9.30334 12.7551C9.23714 12.5734 9.18417 12.3837 9.14445 12.1941C9.13386 12.1467 9.12591 12.0993 9.11797 12.0519C9.11532 12.0282 9.11002 12.0044 9.10737 11.9807C9.09678 11.907 9.11797 12.0861 9.11267 12.0124C9.10208 11.9096 9.09148 11.8069 9.08884 11.7042C9.08089 11.5014 9.09413 11.3012 9.11267 11.0984C9.12062 11.0247 9.09678 11.2038 9.10737 11.13C9.11002 11.1063 9.11532 11.0826 9.11797 11.0589C9.12591 11.0115 9.13386 10.9641 9.14445 10.9167C9.16563 10.8192 9.18682 10.7191 9.21595 10.6243C9.24243 10.5348 9.27156 10.4452 9.30334 10.3557C9.31923 10.3109 9.33777 10.2688 9.35366 10.224C9.38014 10.1555 9.33512 10.2292 9.34042 10.2529C9.33512 10.2371 9.36955 10.1871 9.37749 10.1739C9.45694 10.0001 9.55227 9.83417 9.65555 9.6735C9.68998 9.62346 9.75883 9.4707 9.81445 9.44963C9.80915 9.45226 9.735 9.54971 9.79591 9.47597C9.8118 9.45753 9.82504 9.43909 9.84093 9.42329C9.87536 9.38378 9.90714 9.34427 9.94156 9.3074C10.0687 9.16781 10.2064 9.03612 10.352 8.91496C10.3706 8.89916 10.3891 8.88599 10.405 8.87018C10.4527 8.83068 10.3997 8.84648 10.3785 8.88862C10.3918 8.85965 10.4633 8.82541 10.4897 8.80697C10.5692 8.75166 10.6513 8.69635 10.736 8.64631C10.8155 8.5989 10.8976 8.55412 10.9797 8.51198C11.0167 8.49355 11.0538 8.47511 11.0882 8.45931C11.1094 8.44877 11.1306 8.44087 11.1518 8.43033C11.263 8.37766 11.0406 8.47248 11.1544 8.4277C11.3372 8.35659 11.5199 8.29601 11.7106 8.25123C11.8033 8.23016 11.8986 8.20909 11.9913 8.19592C12.0098 8.19329 12.0257 8.19065 12.0442 8.18802C12.1396 8.17222 12.0231 8.19329 12.0125 8.19329C12.0707 8.19592 12.1343 8.18012 12.1952 8.17485C12.3991 8.15905 12.603 8.16168 12.8043 8.17749C12.852 8.18012 12.9023 8.18802 12.9499 8.19065C13.0241 8.19856 12.844 8.17485 12.9182 8.18539C12.9367 8.18802 12.9552 8.19065 12.9711 8.19329C13.0771 8.20909 13.183 8.23016 13.2889 8.2565C13.4796 8.30391 13.6623 8.36712 13.8424 8.4356C13.9086 8.46194 13.7497 8.39346 13.8133 8.42243C13.8344 8.43297 13.8556 8.44087 13.8768 8.4514C13.9139 8.46721 13.951 8.48564 13.988 8.50408C14.0807 8.55149 14.1734 8.60153 14.2635 8.65421C14.3429 8.70162 14.4197 8.75166 14.4965 8.80434C14.5203 8.82014 14.5971 8.85965 14.6077 8.88599C14.6051 8.88072 14.5071 8.80697 14.5812 8.86755C14.6024 8.88599 14.6263 8.90442 14.6474 8.92286C14.7931 9.04402 14.9308 9.17571 15.0553 9.31794C15.087 9.35218 15.1162 9.38642 15.1453 9.42329C15.1612 9.44173 15.1744 9.46016 15.1903 9.47597C15.23 9.52338 15.2142 9.47333 15.1718 9.44963C15.2009 9.4628 15.2353 9.53391 15.2539 9.56025C15.283 9.60239 15.3121 9.64453 15.3413 9.68931C15.4446 9.84997 15.5372 10.0159 15.6167 10.1897C15.622 10.2003 15.6485 10.2477 15.6458 10.2529C15.6458 10.2503 15.5955 10.1318 15.6326 10.224C15.6485 10.2688 15.667 10.3109 15.6829 10.3557C15.7147 10.4426 15.7438 10.5321 15.7703 10.6243C15.7968 10.7165 15.818 10.8087 15.8391 10.9009C15.8497 10.9483 15.8577 10.9957 15.8656 11.0405C15.8709 11.0642 15.8736 11.0879 15.8762 11.1116C15.8974 11.2354 15.8656 10.9878 15.8762 11.1142C15.8948 11.3091 15.9053 11.504 15.8974 11.7016C15.8948 11.799 15.8842 11.8965 15.8762 11.9939C15.8683 12.0887 15.8789 11.9755 15.8815 11.9623C15.8762 11.986 15.8736 12.0097 15.8709 12.0334C15.8603 12.0914 15.8497 12.1519 15.8391 12.2099C15.8021 12.3943 15.7491 12.576 15.6855 12.7525C15.6697 12.7972 15.6511 12.8394 15.6352 12.8842C15.5982 12.9763 15.6485 12.8578 15.6485 12.8552C15.6511 12.8604 15.6246 12.9079 15.6193 12.9184C15.577 13.0132 15.5293 13.1054 15.4763 13.1976C15.434 13.274 15.3889 13.3477 15.3413 13.4188C15.3148 13.4583 15.291 13.4952 15.2645 13.5321C15.2433 13.561 15.2036 13.6427 15.1718 13.6585C15.2142 13.6374 15.23 13.5848 15.1903 13.6322C15.1744 13.6506 15.1612 13.669 15.1453 13.6848C15.1162 13.7191 15.087 13.756 15.0553 13.7902C14.9864 13.8666 14.9149 13.9403 14.8381 14.0114C14.7746 14.072 14.711 14.1273 14.6448 14.1826C14.6316 14.1932 14.5124 14.2933 14.5759 14.2379C14.6342 14.1879 14.5759 14.2379 14.5601 14.2485C14.5362 14.2643 14.5124 14.2827 14.4912 14.2985C14.3297 14.4118 14.1602 14.5119 13.9854 14.6014C13.9483 14.6198 13.9112 14.6383 13.8742 14.6541C13.853 14.6646 13.8318 14.6725 13.8106 14.6831C13.747 14.7147 13.9059 14.6462 13.8397 14.6699C13.747 14.7041 13.6544 14.741 13.559 14.7726C13.3657 14.8332 13.1697 14.8806 12.9685 14.9122C12.9499 14.9148 12.9314 14.9175 12.9155 14.9201C12.8414 14.9306 13.0214 14.9096 12.9473 14.9148C12.8996 14.9201 12.8493 14.9254 12.8016 14.928C12.7063 14.9412 12.603 14.9438 12.4971 14.9464C12.219 14.9464 11.9542 15.1888 11.9674 15.4732C11.9807 15.7577 12.2005 16.0026 12.4971 16C13.4054 15.9947 14.3217 15.7234 15.0632 15.1914C15.818 14.6515 16.3847 13.9192 16.7051 13.0501C17.338 11.3407 16.7819 9.30213 15.3625 8.14851C14.6289 7.55327 13.7576 7.1977 12.8122 7.12395C11.9065 7.05284 10.9691 7.27935 10.1931 7.74817C9.4437 8.20119 8.81342 8.88072 8.45062 9.67614C8.05074 10.5532 7.93686 11.5093 8.12224 12.4522C8.46915 14.209 9.97069 15.6602 11.7529 15.9315C11.9992 15.9684 12.2482 15.9947 12.4971 15.9947C12.7752 15.9947 13.04 15.7524 13.0267 15.4679C13.0135 15.1861 12.7937 14.9464 12.4971 14.9464Z" id="Shape" fill="#FFFFFF" stroke="none" />
  </g>
</svg>